<svg width="1920" height="1167" viewBox="0 0 1920 1167" fill="none" xmlns="http://www.w3.org/2000/svg">
<g clip-path="url(#clip0_145_107)">
<g opacity="0.3">
<path d="M182.199 -1.24316H215.709L561.909 350.719C572.789 361.864 578.87 376.829 578.828 392.36C578.786 407.89 572.626 422.73 561.688 433.652L417.659 577.95C413.574 582.055 408.712 585.303 403.355 587.505C397.999 589.708 392.253 590.82 386.452 590.779C380.652 590.738 374.911 589.543 369.563 587.264C364.216 584.986 359.367 581.669 355.299 577.505L0 213.536V188.857L182.199 -1.24316Z" fill="#486A99"/>
<path d="M1194.61 -1.24316H1207.26L1328.65 115.262C1331.34 117.804 1333.27 121.035 1334.25 124.602C1335.23 128.169 1335.21 131.937 1334.2 135.495C1327.25 158.767 1313.78 180.259 1293.81 199.973C1128.4 363.615 923.274 571.279 678.418 822.967C618.943 884.332 548.593 774.719 514.195 737.144C506.296 728.449 502.032 717.039 502.28 705.256C502.527 693.473 507.267 682.21 515.527 673.777C728.277 457.516 942.433 239.327 1157.99 19.212C1164.65 12.3936 1176.86 5.57523 1194.61 -1.24316Z" fill="#7677B6"/>
<path d="M1682.84 -1.24316H1715.25L1906.32 190.191C1910.57 194.414 1913.94 199.44 1916.24 204.98C1918.54 210.52 1919.72 216.465 1919.72 222.476C1919.72 228.486 1918.54 234.443 1916.24 240.005C1913.94 245.568 1910.57 250.626 1906.32 254.891L1815.11 346.495C1811.09 350.547 1806.29 353.752 1801.01 355.926C1795.73 358.1 1790.07 359.198 1784.35 359.156C1778.63 359.115 1772.97 357.935 1767.7 355.685C1762.42 353.435 1757.65 350.16 1753.64 346.05L1581.87 168.846C1558.05 144.241 1558.35 120.006 1582.76 96.1413L1682.84 -1.24316Z" fill="#87C879"/>
<path d="M658.773 18.8216L579.994 95.8428C558.064 117.283 557.635 152.475 579.035 174.446L654.673 252.099C676.073 274.07 711.199 274.5 733.129 253.06L811.908 176.038C833.837 154.598 834.266 119.406 812.866 97.4356L737.229 19.7819C715.829 -2.18883 680.703 -2.61881 658.773 18.8216Z" fill="#4AC3E4"/>
<path d="M1412.57 274.209L1333.69 352.405C1312.09 373.826 1311.91 408.738 1333.29 430.384L1411.02 509.087C1432.41 530.733 1467.25 530.916 1488.86 509.495L1567.73 431.299C1589.33 409.879 1589.52 374.967 1568.14 353.321L1490.4 274.618C1469.02 252.972 1434.17 252.789 1412.57 274.209Z" fill="#ECAF77"/>
<path d="M1903.42 692.626L1740.6 530.632C1719.29 509.433 1684.86 509.553 1663.7 530.901L1585.83 609.468C1564.67 630.815 1564.79 665.305 1586.1 686.504L1748.92 848.498C1770.23 869.696 1804.65 869.576 1825.81 848.229L1903.69 769.662C1924.85 748.315 1924.73 713.825 1903.42 692.626Z" fill="#59BF8E"/>
<path d="M1165.27 530.717L1083.59 611.13C1062.52 631.873 1062.23 665.799 1082.93 686.906L1470.56 1082.1C1491.26 1103.2 1525.12 1103.5 1546.19 1082.76L1627.87 1002.34C1648.93 981.602 1649.23 947.676 1628.53 926.568L1240.9 531.378C1220.2 510.271 1186.33 509.975 1165.27 530.717Z" fill="#EA69A5"/>
<path d="M0 724.916V700.681L107.633 585.509C111.413 581.423 115.983 578.149 121.068 575.883C126.153 573.617 131.649 572.406 137.224 572.323C142.8 572.24 148.34 573.286 153.514 575.4C158.687 577.513 163.387 580.649 167.33 584.62L504.209 926.577C514.249 936.733 519.863 950.461 519.821 964.754C519.779 979.048 514.086 992.743 503.987 1002.84L417.881 1089.33C413.674 1093.54 408.672 1096.87 403.164 1099.13C397.655 1101.39 391.749 1102.54 385.787 1102.49C379.824 1102.45 373.923 1101.23 368.423 1098.89C362.924 1096.56 357.935 1093.16 353.745 1088.88L0 724.916Z" fill="#59BF8E"/>
<path d="M1062.17 865.525L985.503 789.519C963.114 767.321 927.002 767.511 904.846 789.942L519.28 1180.3C497.123 1202.73 497.313 1238.91 519.702 1261.11L596.365 1337.11C618.755 1359.31 654.866 1359.12 677.023 1336.69L1062.59 946.334C1084.74 923.902 1084.56 887.723 1062.17 865.525Z" fill="#F1856D"/>
<path d="M1160.28 1044.17L1023.75 1179.06C1001.15 1201.39 1000.9 1237.85 1023.18 1260.49L1682.94 1930.78C1705.23 1953.43 1741.63 1953.68 1764.23 1931.35L1900.75 1796.47C1923.36 1774.13 1923.61 1737.67 1901.32 1715.03L1241.56 1044.74C1219.27 1022.09 1182.88 1021.84 1160.28 1044.17Z" fill="#F08CB5"/>
<path d="M0 1238.07V1203.83L101.641 1096.89C105.421 1092.91 109.958 1089.73 114.985 1087.54C120.011 1085.35 125.424 1084.19 130.905 1084.13C136.386 1084.06 141.825 1085.1 146.899 1087.18C151.973 1089.26 156.581 1092.33 160.45 1096.22L252.327 1188.27C257.027 1192.97 260.74 1198.57 263.246 1204.73C265.753 1210.89 267.001 1217.49 266.919 1224.14C266.836 1230.8 265.423 1237.36 262.765 1243.46C260.106 1249.56 256.255 1255.06 251.439 1259.64L163.335 1343.02C158.761 1347.31 153.387 1350.66 147.52 1352.87C141.653 1355.09 135.409 1356.12 129.143 1355.91C122.878 1355.7 116.715 1354.26 111.006 1351.67C105.297 1349.08 100.154 1345.38 95.8708 1340.79L0 1238.07Z" fill="#B3C67C"/>
<path d="M1726.5 1102.25L1644.37 1182.83C1623.97 1202.85 1623.63 1235.65 1643.61 1256.09L1746.71 1361.57C1766.69 1382.01 1799.42 1382.35 1819.83 1362.34L1901.96 1281.76C1922.37 1261.74 1922.71 1228.94 1902.73 1208.5L1799.63 1103.02C1779.65 1082.57 1746.91 1082.23 1726.5 1102.25Z" fill="#486A99"/>
</g>
</g>
<defs>
<clipPath id="clip0_145_107">
<rect width="1920" height="1167" fill="white"/>
</clipPath>
</defs>
</svg>
